<svg width="11" height="24" viewBox="0 0 11 24" fill="none" xmlns="http://www.w3.org/2000/svg">
<path fill-rule="evenodd" clip-rule="evenodd" d="M2.38333 12.0957V23.1981C2.38333 23.3895 2.475 23.4852 2.65833 23.4852H6.875C7.05833 23.4852 7.15 23.3895 7.15 23.1981V11.9042H10.2667C10.45 11.9042 10.5417 11.8085 10.5417 11.6171L10.8167 8.17151C10.8167 7.98009 10.725 7.88438 10.5417 7.88438H7.15V5.49161C7.15 4.91734 7.60833 4.43879 8.25 4.43879H10.6333C10.9083 4.43879 11 4.34308 11 4.15166V0.801781C11 0.610359 10.9083 0.514648 10.725 0.514648H6.69167C4.30833 0.514648 2.38333 2.33315 2.38333 4.63021V7.88438H0.275C0.0916668 7.88438 0 7.98009 0 8.17151V11.6171C0 11.8085 0.0916668 11.9042 0.275 11.9042H2.38333V12.0957Z" fill="white"/>
</svg>
