<svg width="22" height="23" viewBox="0 0 22 23" fill="none" xmlns="http://www.w3.org/2000/svg">
<path d="M12.6316 5.39628C13.6598 5.60573 14.6046 6.13075 15.3454 6.90414C16.0861 7.67753 16.5889 8.66411 16.7895 9.73762M12.6316 1C14.7677 1.24777 16.7596 2.24653 18.2803 3.83232C19.8009 5.41809 20.7601 7.49662 21 9.72662M17.3158 21.8824C8.30483 21.8824 1 14.2552 1 4.84675C1 4.42227 1.01487 4.00141 1.04409 3.58472C1.07763 3.1065 1.0944 2.8674 1.21442 2.64974C1.31383 2.46947 1.49 2.29851 1.66945 2.20815C1.88612 2.09907 2.13882 2.09907 2.64422 2.09907H5.60981C6.03482 2.09907 6.24733 2.09907 6.42949 2.1721C6.59041 2.23662 6.7337 2.34141 6.84676 2.47726C6.97475 2.63105 7.04737 2.83958 7.19262 3.25662L8.42011 6.78117C8.58905 7.26639 8.67358 7.509 8.65926 7.73917C8.64663 7.94214 8.58021 8.13746 8.46758 8.30339C8.33985 8.49158 8.12784 8.6244 7.70382 8.89003L6.26316 9.79257C7.52832 12.7039 9.78958 15.068 12.5789 16.387L13.4434 14.8828C13.6978 14.44 13.8249 14.2186 14.0052 14.0853C14.1641 13.9677 14.3512 13.8984 14.5456 13.8852C14.766 13.8702 14.9984 13.9585 15.4632 14.1349L18.8387 15.4165C19.2381 15.5682 19.4379 15.644 19.5852 15.7777C19.7153 15.8957 19.8157 16.0453 19.8774 16.2133C19.9474 16.4035 19.9474 16.6254 19.9474 17.0692V20.1656C19.9474 20.6933 19.9474 20.9572 19.8428 21.1833C19.7563 21.3707 19.5926 21.5547 19.42 21.6585C19.2115 21.7838 18.9825 21.8012 18.5245 21.8363C18.1254 21.8669 17.7223 21.8824 17.3158 21.8824Z" stroke="white" stroke-width="2" stroke-linecap="round" stroke-linejoin="round"/>
</svg>
