<svg width="19" height="22" viewBox="0 0 19 22" fill="none" xmlns="http://www.w3.org/2000/svg">
<path d="M9.16667 22L8.61667 21.6333C8.25 21.3583 0 15.7667 0 9.16667C0 4.125 4.125 0 9.16667 0C14.2083 0 18.3333 4.125 18.3333 9.16667C18.3333 15.7667 10.0833 21.3583 9.71667 21.6333L9.16667 22ZM9.16667 1.83333C5.13333 1.83333 1.83333 5.13333 1.83333 9.16667C1.83333 13.9333 7.425 18.425 9.16667 19.8C10.9083 18.425 16.5 13.9333 16.5 9.16667C16.5 5.13333 13.2 1.83333 9.16667 1.83333ZM9.16667 12.8333C7.15 12.8333 5.5 11.1833 5.5 9.16667C5.5 7.15 7.15 5.5 9.16667 5.5C11.1833 5.5 12.8333 7.15 12.8333 9.16667C12.8333 11.1833 11.1833 12.8333 9.16667 12.8333ZM9.16667 7.33333C8.15833 7.33333 7.33333 8.15833 7.33333 9.16667C7.33333 10.175 8.15833 11 9.16667 11C10.175 11 11 10.175 11 9.16667C11 8.15833 10.175 7.33333 9.16667 7.33333Z" fill="white"/>
</svg>
