<svg width="24" height="21" viewBox="0 0 24 21" fill="none" xmlns="http://www.w3.org/2000/svg">
<path fill-rule="evenodd" clip-rule="evenodd" d="M22.47 14.669C22.47 16.8571 20.69 18.6342 18.5047 18.6342H5.4953C3.30996 18.6342 1.52999 16.8571 1.52999 14.669V6.39127C1.5295 5.68605 1.71843 4.99364 2.07702 4.3864L8.42481 10.7342C9.37448 11.6866 10.6462 12.2115 12.0013 12.2115C13.3537 12.2115 14.6254 11.6866 15.5751 10.7342L21.9229 4.3864C22.2815 4.99363 22.4704 5.68605 22.4699 6.39127V14.669H22.47ZM18.5047 2.42601H5.4953C4.59284 2.42601 3.75977 2.73143 3.09335 3.2396L9.505 9.65403C10.1687 10.3149 11.0545 10.6814 12.0013 10.6814C12.9455 10.6814 13.8313 10.3149 14.4949 9.65403L20.9066 3.2396C20.2402 2.73143 19.4072 2.42601 18.5047 2.42601ZM18.5047 0.895996H5.4953C2.4658 0.895996 -2.28882e-05 3.36182 -2.28882e-05 6.39132V14.669C-2.28882e-05 17.7013 2.4658 20.1644 5.4953 20.1644H18.5047C21.5342 20.1644 24 17.7013 24 14.669V6.39127C24 3.36177 21.5342 0.895996 18.5047 0.895996Z" fill="#F5F0E6"/>
</svg>
