<svg width="41" height="37" viewBox="0 0 41 37" fill="none" xmlns="http://www.w3.org/2000/svg">
<path d="M34.0884 19.3833H38.2244V23.3837H34.0884V19.3833ZM34.0884 27.5639H38.2244V31.5643H34.0884V27.5639ZM2.77563 19.3833H6.91157V23.3837H2.77563V19.3833ZM2.77563 27.5639H6.91157V31.5643H2.77563V27.5639ZM16.0203 26.9217H24.9798V35.7338H16.0203V26.9217Z" stroke="url(#paint0_linear_651_449)" stroke-width="1.5" stroke-miterlimit="10" stroke-linecap="round" stroke-linejoin="round"/>
<path d="M29.9524 35.7339V1.26562H11.0476V35.7339H29.9524ZM29.9524 35.7339H38.2244V14.8989H29.9524V35.7339ZM9.6843 1.26562H31.3157" stroke="url(#paint1_linear_651_449)" stroke-width="1.5" stroke-miterlimit="10" stroke-linecap="round" stroke-linejoin="round"/>
<path d="M1.28125 35.7339H39.7188M14.8841 26.9219H26.1159M20.5 31.786V35.5178M2.77563 14.8989H11.0476V35.7339H2.77563V14.8989ZM14.8841 16.1953H18.6764V22.2209H14.8841V16.1953ZM22.3236 16.1953H26.1159V22.2209H22.3236V16.1953Z" stroke="url(#paint2_linear_651_449)" stroke-width="1.5" stroke-miterlimit="10" stroke-linecap="round" stroke-linejoin="round"/>
<path d="M20.5 13.2457C22.8823 13.2457 24.8135 11.3145 24.8135 8.93217C24.8135 6.54988 22.8823 4.61865 20.5 4.61865C18.1177 4.61865 16.1865 6.54988 16.1865 8.93217C16.1865 11.3145 18.1177 13.2457 20.5 13.2457Z" stroke="url(#paint3_linear_651_449)" stroke-width="1.5" stroke-miterlimit="10" stroke-linecap="round" stroke-linejoin="round"/>
<path d="M20.5 7.84961V8.9318L21.0784 9.51023" stroke="url(#paint4_linear_651_449)" stroke-width="1.5" stroke-miterlimit="10" stroke-linecap="round" stroke-linejoin="round"/>
<defs>
<linearGradient id="paint0_linear_651_449" x1="20.5" y1="19.3833" x2="20.5" y2="35.7338" gradientUnits="userSpaceOnUse">
<stop stop-color="#F6FCFC"/>
<stop offset="1" stop-color="#ACDFE4"/>
</linearGradient>
<linearGradient id="paint1_linear_651_449" x1="23.9543" y1="1.26562" x2="23.9543" y2="35.7339" gradientUnits="userSpaceOnUse">
<stop stop-color="#F6FCFC"/>
<stop offset="1" stop-color="#ACDFE4"/>
</linearGradient>
<linearGradient id="paint2_linear_651_449" x1="20.5" y1="14.8989" x2="20.5" y2="35.7339" gradientUnits="userSpaceOnUse">
<stop stop-color="#F6FCFC"/>
<stop offset="1" stop-color="#ACDFE4"/>
</linearGradient>
<linearGradient id="paint3_linear_651_449" x1="20.5" y1="4.61865" x2="20.5" y2="13.2457" gradientUnits="userSpaceOnUse">
<stop stop-color="#F6FCFC"/>
<stop offset="1" stop-color="#ACDFE4"/>
</linearGradient>
<linearGradient id="paint4_linear_651_449" x1="20.7892" y1="7.84961" x2="20.7892" y2="9.51023" gradientUnits="userSpaceOnUse">
<stop stop-color="#F6FCFC"/>
<stop offset="1" stop-color="#ACDFE4"/>
</linearGradient>
</defs>
</svg>
