<svg width="26" height="27" viewBox="0 0 26 27" fill="none" xmlns="http://www.w3.org/2000/svg">
<path d="M13.0002 3.8147e-06C18.5002 3.8147e-06 23.4302 3.48 25.2602 8.67C25.4402 9.19 25.1702 9.76 24.6502 9.95C24.1302 10.13 23.5602 9.86 23.3702 9.34C21.8202 4.95 17.6502 2.01 13.0002 2.01C6.93024 2.01 2.00024 6.94 2.00024 13.01C2.00024 19.08 6.93024 24.01 13.0002 24.01C17.6602 24.01 21.8202 21.06 23.3702 16.68C23.5502 16.16 24.1302 15.88 24.6502 16.07C25.1702 16.25 25.4402 16.83 25.2602 17.35C23.4302 22.53 18.5002 26.02 13.0002 26.02C5.83024 26.02 0.000244141 20.19 0.000244141 13.02C0.000244141 5.85 5.83024 0.0200043 13.0002 0.0200043V3.8147e-06ZM8.00024 13.12C8.00024 13.67 8.45024 14.12 9.00024 14.12L25.0002 14.12C25.5502 14.12 26.0002 13.67 26.0002 13.12C26.0002 12.57 25.5502 12.12 25.0002 12.12L9.00024 12.12C8.45024 12.12 8.00024 12.57 8.00024 13.12ZM12.2902 8.17L8.05024 12.41C7.86024 12.6 7.76024 12.85 7.76024 13.12C7.76024 13.39 7.87024 13.64 8.05024 13.83L12.2902 18.07C12.6802 18.46 13.3102 18.46 13.7002 18.07C14.0902 17.68 14.0902 17.05 13.7002 16.66L10.1602 13.12L13.7002 9.58C14.0902 9.19 14.0902 8.56 13.7002 8.17C13.5002 7.97 13.2502 7.88 12.9902 7.88C12.7302 7.88 12.4802 7.98 12.2802 8.17H12.2902Z" fill="black"/>
</svg>
