<svg width="30" height="31" viewBox="0 0 30 31" fill="none" xmlns="http://www.w3.org/2000/svg">
<path d="M24.0771 5.65947C24.6365 5.49416 25.2628 5.63481 25.7305 5.79814C26.2156 5.96765 26.6399 6.20129 26.8496 6.34111L27.0254 6.46318C27.8397 7.05629 28.5885 7.96149 29.0898 8.93193L29.1934 9.14091L29.1953 9.14482L29.2939 9.36259L29.2998 9.37431L29.4541 9.76787L29.4561 9.7747C29.7984 10.7326 29.9325 11.7464 29.9326 12.7103C29.9326 13.7467 29.7778 14.742 29.5498 15.5745L29.5488 15.5794L29.4492 15.9173L29.4473 15.9212C28.59 18.6467 26.5727 21.7498 24.0479 24.2923L24.0488 24.2933L23.874 24.47C21.461 26.9148 18.5088 28.9062 15.8496 29.8704L15.3213 30.0501C13.609 30.5886 10.9833 30.8485 8.76758 29.8968C7.63978 29.4122 6.55229 28.5664 5.87012 27.636L5.73926 27.4485C5.59989 27.2385 5.36642 26.8142 5.19727 26.3294C5.03448 25.8626 4.89399 25.2366 5.05762 24.679L5.10059 24.5481C5.33403 23.9028 5.84429 23.3778 6.41309 22.9427C7.02329 22.476 7.76727 22.0631 8.48047 21.6858C9.59482 21.0573 10.5546 20.6077 11.4619 20.5384C12.194 20.4825 12.8532 20.6748 13.5 21.1204L13.7773 21.3274L13.7842 21.3333L14.084 21.594L14.0908 21.5999L14.0967 21.6058L14.1484 21.6311C14.1881 21.6443 14.2507 21.657 14.3428 21.6595C14.5256 21.6643 14.7808 21.6269 15.0996 21.5247C15.7358 21.3207 16.5556 20.881 17.4326 20.1663C17.807 19.8616 18.186 19.5207 18.5557 19.1526C18.9215 18.7849 19.2621 18.4079 19.5664 18.0345C20.3629 17.0565 20.8134 16.335 21.002 15.7747C21.1784 15.25 21.1183 14.8938 20.9023 14.5686L20.8984 14.5628L20.8887 14.5472L20.8828 14.5384C20.3626 13.6182 20.0078 12.8705 20.0225 12.0101C20.0371 11.1626 20.4082 10.2832 21.0889 9.07549C21.4641 8.36568 21.8767 7.62224 22.3438 7.01201C22.8067 6.40714 23.3721 5.86721 24.0771 5.65947ZM22.9844 14.6194C23.1447 15.4201 22.9565 16.212 22.6113 16.9495C22.2386 17.7456 21.6647 18.5262 21.0693 19.2571C20.7227 19.6826 20.3379 20.109 19.9258 20.5228L19.9248 20.5237C19.5097 20.9372 19.0829 21.3228 18.6572 21.6692C17.806 22.3628 16.9377 22.884 16.124 23.2063C15.3889 23.4975 14.6687 23.6314 14.0322 23.5599L7.79297 26.9095C8.25932 27.3953 8.88264 27.8363 9.53223 28.1155C11.2172 28.8392 13.388 28.6264 14.7393 28.2015C17.1932 27.428 20.0962 25.536 22.4824 23.1224L22.5088 23.0843L22.5312 23.0716C24.9411 20.6865 26.8292 17.7896 27.5996 15.3401C28.026 13.9894 28.2397 11.8189 27.5156 10.1331L27.3809 9.84599C27.0948 9.28301 26.6977 8.75563 26.2686 8.35381L22.9844 14.6194ZM11.5869 22.4681C11.1461 22.5107 10.5129 22.7642 9.4209 23.3802L9.41016 23.387L9.4082 23.386C8.96495 23.6204 8.36705 23.9381 7.85059 24.2933C7.59267 24.4707 7.36876 24.6492 7.2002 24.8206C7.06009 24.9632 6.9799 25.081 6.93945 25.1692L11.9365 22.4856C11.8272 22.4614 11.7136 22.4559 11.5869 22.4681ZM4.81641 1.48369C9.14553 -0.786243 14.5147 0.888188 16.7861 5.21611C17.4667 6.51331 17.8066 7.92567 17.8066 9.33623C17.8066 10.7693 17.4532 12.1982 16.7559 13.5052L17.0654 16.9915L17.0664 17.0022V17.0149C17.0878 17.3634 16.9219 17.7031 16.6191 17.8948L16.4502 18.0022L16.4316 17.9837C16.1646 18.0815 15.8643 18.0603 15.6123 17.9134L13.708 16.8011C13.4934 16.9388 13.2759 17.0703 13.0537 17.1868C8.86001 19.3855 3.68994 17.8825 1.30566 13.8519L1.08398 13.4534C-1.18468 9.12387 0.488301 3.75453 4.81641 1.48369ZM15.0713 6.1165C13.2967 2.73511 9.09929 1.427 5.7168 3.20049C2.33566 4.97519 1.0264 9.17073 2.7998 12.553C4.57483 15.9348 8.77102 17.2432 12.1533 15.47C12.4706 15.3037 12.787 15.1055 13.0898 14.8802C13.3626 14.6776 13.718 14.6351 14.0264 14.7581L14.1553 14.8206L14.9697 15.2952L14.8057 13.43L14.8047 13.428L14.8008 13.3802C14.7985 13.3521 14.7979 13.3229 14.7979 13.2981C14.7979 13.1317 14.8413 12.9663 14.9248 12.8196L15.1406 12.4192C16.132 10.4273 16.1139 8.10398 15.0713 6.1165ZM8.93457 12.1575C9.46931 12.1575 9.90306 12.5914 9.90332 13.1263L9.89844 13.222C9.85097 13.6977 9.45457 14.1087 8.93457 14.1087C8.45337 14.1085 8.02283 13.7584 7.9707 13.2571L7.96582 13.1546V13.1263C7.96608 12.5917 8.39999 12.1578 8.93457 12.1575ZM24.4834 7.58623C24.4097 7.63249 24.3217 7.70187 24.2207 7.80107C24.0495 7.96931 23.8712 8.19347 23.6943 8.45049C23.3401 8.96529 23.0241 9.56112 22.793 9.99834L22.792 9.99736V9.99931L22.7861 10.0101C22.2033 11.0435 21.9945 11.5922 21.9658 11.9954C21.9574 12.1149 21.9645 12.2283 21.9893 12.347L24.4834 7.58623ZM8.93457 8.35381C9.46957 8.35381 9.90332 8.78758 9.90332 9.32256C9.90331 9.83881 9.48791 10.304 8.93457 10.304C8.45202 10.3038 8.02274 9.95178 7.9707 9.45146L7.96582 9.34892V9.32256C7.96582 8.7876 8.3999 8.35407 8.93457 8.35381ZM8.93457 4.54814C9.46953 4.54814 9.90332 4.98183 9.90332 5.51689C9.90307 6.03169 9.48903 6.49931 8.93457 6.49931C8.45344 6.49908 8.02302 6.1488 7.9707 5.64775L7.96582 5.54521V5.51689C7.96582 4.98198 8.39985 4.5484 8.93457 4.54814Z" fill="black"/>
</svg>
