<svg width="24" height="24" viewBox="0 0 24 24" fill="none" xmlns="http://www.w3.org/2000/svg">
<path d="M12 0C18.6274 0 24 5.37258 24 12C24 14.9283 22.9496 17.6102 21.207 19.6934L17.5674 16.0537C18.4949 14.8663 19.0498 13.3735 19.0498 11.75C19.0498 7.884 15.9158 4.75 12.0498 4.75C8.18382 4.75 5.0498 7.884 5.0498 11.75C5.0498 15.616 8.18382 18.75 12.0498 18.75C13.5706 18.75 14.9769 18.2632 16.125 17.4395L19.7998 21.1143C17.7018 22.9113 14.979 24 12 24C5.37258 24 0 18.6274 0 12C0 5.37258 5.37258 0 12 0ZM12.0498 6.75C14.8112 6.75 17.0498 8.98858 17.0498 11.75C17.0498 14.5114 14.8112 16.75 12.0498 16.75C9.28839 16.75 7.0498 14.5114 7.0498 11.75C7.0498 8.98858 9.28839 6.75 12.0498 6.75Z" fill="black"/>
</svg>
