<svg width="26" height="28" viewBox="0 0 26 28" fill="none" xmlns="http://www.w3.org/2000/svg">
<path d="M6.12408 21.1047L9.07486 26.2159C9.7116 27.32 11.1439 27.7288 12.2767 27.074C13.3976 26.4262 13.7827 24.9941 13.1343 23.8724L11.3765 20.8273L12.8987 19.9484C13.1789 19.7864 13.275 19.4282 13.1132 19.148L12.3513 17.8283C12.4421 17.8107 13.0395 17.6935 23.5743 15.6269C24.8766 15.5562 25.6569 14.1318 24.9991 12.9931L23.0518 9.62041L24.2962 7.73553C24.3561 7.64471 24.3896 7.53898 24.3929 7.4302C24.3962 7.32141 24.3691 7.21386 24.3147 7.11959L23.1429 5.0899C23.0883 4.99576 23.0087 4.91862 22.9129 4.86709C22.817 4.81557 22.7088 4.79168 22.6002 4.79811L20.3459 4.93334L18.1841 1.18879C17.871 0.646391 17.31 0.317911 16.6838 0.310121C16.6762 0.309891 16.6689 0.309891 16.6613 0.309891C16.0562 0.309891 15.5069 0.611121 15.1814 1.12035L7.52716 10.8712L2.55103 13.7441C0.593881 14.8736 -0.0841658 17.3846 1.0498 19.347C2.08574 21.1414 4.2697 21.8472 6.12408 21.1047ZM12.1197 24.4585C12.4433 25.0184 12.2518 25.7348 11.6902 26.0591C11.127 26.3848 10.4097 26.1848 10.0897 25.6302L7.16001 20.5552L9.1897 19.3833C12.5804 25.2569 12.0652 24.3645 12.1197 24.4585ZM10.7905 19.8122L10.2046 18.7974L11.2194 18.2114L11.8054 19.2263L10.7905 19.8122ZM22.309 5.98938L23.1188 7.392L22.3967 8.48559L21.001 6.06789L22.309 5.98938ZM16.1615 1.76283C16.3187 1.50561 16.5682 1.47907 16.6694 1.48176C16.7694 1.48293 17.0186 1.51405 17.169 1.77455L23.9842 13.5791C24.2062 13.9634 23.9363 14.4466 23.4912 14.4576C23.4113 14.4593 23.3745 14.4738 23.1698 14.5121L15.9607 2.02533C16.112 1.8308 16.1315 1.81205 16.1615 1.76283ZM15.181 3.01873L21.9542 14.7505L11.732 16.7555L8.62374 11.372L15.181 3.01873ZM2.06464 18.761C1.8076 18.3166 1.67201 17.8124 1.67148 17.2991C1.67148 16.2541 2.2331 15.2808 3.13691 14.759L7.70382 12.1223L10.6335 17.1965L6.06665 19.8335C4.66749 20.641 2.8723 20.1599 2.06464 18.761Z" fill="black"/>
</svg>
