<?xml version="1.0" encoding="UTF-8"?>
<svg version="1.1" xmlns="http://www.w3.org/2000/svg" width="90" height="90">
<path d="M0 0 C9.2885078 6.04644574 16.30704248 13.66242586 19.23828125 24.45703125 C20.46037108 35.51909764 20.10526593 45.98365476 13.25 55.1015625 C7.15310061 62.29358717 -0.02143748 68.60191805 -9.76831055 69.67871094 C-22.2481191 70.33724633 -31.37407133 69.47224853 -41.13671875 61.08203125 C-47.69971445 54.7774212 -47.69971445 54.7774212 -49.76171875 50.45703125 C-49.51171875 47.58203125 -49.51171875 47.58203125 -48.76171875 45.45703125 C-46.78171875 44.96203125 -46.78171875 44.96203125 -44.76171875 44.45703125 C-44.21644531 45.19308594 -43.67117187 45.92914063 -43.109375 46.6875 C-37.48007306 53.97191294 -32.51559329 58.53907307 -23.76171875 61.45703125 C-13.10128372 62.29287513 -5.44652353 61.26824127 3.05078125 54.70703125 C7.89891515 50.28634303 10.96407605 43.95427133 11.4765625 37.41796875 C11.69186881 27.01527455 10.09679161 19.68661723 2.921875 11.95703125 C-2.78259908 6.87462278 -10.23266262 4.79834846 -17.76171875 4.45703125 C-27.38942172 5.41733922 -34.43832454 9.33698676 -40.6484375 16.69140625 C-42.08374335 18.57838177 -43.45285772 20.48090774 -44.76171875 22.45703125 C-46.08171875 22.12703125 -47.40171875 21.79703125 -48.76171875 21.45703125 C-49.63671875 19.45703125 -49.63671875 19.45703125 -49.76171875 16.45703125 C-45.45985756 8.32940419 -37.50790335 1.2083759 -28.86328125 -1.8828125 C-19.72859607 -3.82709688 -8.53261085 -4.17051618 0 0 Z " fill="#000000" transform="translate(61.76171875,11.54296875)"/>
<path d="M0 0 C2.89596975 -0.3994441 5.09267816 -0.5999096 7.60400391 1.06054688 C9.25744679 2.55835348 10.78999508 4.11942188 12.3125 5.75 C13.1178418 6.55824219 13.1178418 6.55824219 13.93945312 7.3828125 C16.60058157 10.13454683 18.47171225 12.17136514 19 16 C17.77734375 17.9296875 17.77734375 17.9296875 15.9375 19.875 C15.29039063 20.56464844 14.64328125 21.25429688 13.9765625 21.96484375 C13.32429688 22.63644531 12.67203125 23.30804688 12 24 C11.17628906 24.89912109 11.17628906 24.89912109 10.3359375 25.81640625 C7.70343739 28.61765637 5.86138867 30.50074975 2 31 C0.25 29.5625 0.25 29.5625 -1 28 C0.43624095 23.69127714 1.54602565 22.45397435 5 19 C-6.55 18.67 -18.1 18.34 -30 18 C-31 14 -31 14 -30 12 C-12.675 11.505 -12.675 11.505 5 11 C2.525 8.525 2.525 8.525 0 6 C-0.875 3.8125 -0.875 3.8125 -1 2 C-0.67 1.34 -0.34 0.68 0 0 Z " fill="#000000" transform="translate(39,30)"/>
</svg>
