<svg width="30" height="30" viewBox="0 0 30 30" fill="none" xmlns="http://www.w3.org/2000/svg">
<g clip-path="url(#clip0_2019_443)">
<path d="M8.46655 12.6267L8.46655 12.6547C8.46655 12.9135 8.67646 13.1094 8.9353 13.1094C9.19415 13.1094 9.40405 12.8856 9.40405 12.6267C9.40405 12.3678 9.19415 12.158 8.9353 12.158C8.67646 12.158 8.46655 12.3679 8.46655 12.6267Z" fill="white" stroke="white" stroke-width="0.5"/>
<path d="M8.46655 8.82249L8.46655 8.8486C8.46655 9.10745 8.67646 9.30432 8.9353 9.30432C9.19415 9.30432 9.40405 9.08138 9.40405 8.82254C9.40405 8.5637 9.19415 8.35379 8.9353 8.35379C8.67646 8.35379 8.46655 8.5636 8.46655 8.82249Z" fill="white" stroke="white" stroke-width="0.5"/>
<path d="M8.46655 5.01643L8.46655 5.04436C8.46655 5.30321 8.67646 5.49915 8.9353 5.49915C9.19415 5.49915 9.40405 5.27532 9.40405 5.01643C9.40405 4.75754 9.19415 4.54768 8.9353 4.54768C8.67646 4.54768 8.46655 4.75754 8.46655 5.01643Z" fill="white" stroke="white" stroke-width="0.5"/>
<path d="M21.5282 8.81471C20.167 11.2283 20.2783 11.9511 21.3187 13.7915C21.9464 14.7359 21.5637 15.873 19.9542 17.8492C19.6381 18.2371 19.2856 18.6269 18.908 19.0064C18.5271 19.3857 18.1373 19.7379 17.7491 20.0538C15.921 21.5436 14.2527 21.9492 13.7499 21.4653C12.2166 20.0394 10.9575 20.363 8.72615 21.6216C7.2922 22.3797 5.8649 23.2121 5.53739 24.3201C5.30142 25.1235 5.91961 26.3164 6.15539 26.6717C6.76397 27.5853 7.8404 28.453 8.96493 28.9362C11.0338 29.825 13.5272 29.5892 15.171 29.0722C17.8659 28.2228 20.9865 26.1842 23.5188 23.6184C26.0857 21.0851 28.1239 17.9645 28.971 15.2708C29.2395 14.4198 29.4324 13.3411 29.4324 12.2107C29.4324 11.1589 29.2654 10.0624 28.8367 9.06423C28.3526 7.93975 27.4849 6.86401 26.5723 6.25698C26.2182 6.02078 25.0255 5.40029 24.2187 5.63898C23.1127 5.96467 22.2801 7.39196 21.5282 8.81471ZM22.351 9.26401C22.8099 8.39584 23.6643 6.77973 24.4844 6.53828C24.6515 6.48878 24.9559 6.54896 25.2724 6.66006L21.9494 13.0019C21.289 11.8091 21.1879 11.3261 22.351 9.26401ZM6.43659 24.5853C6.67945 23.7639 8.29579 22.9095 9.1754 22.4444C11.3537 21.2156 12.0411 21.2195 12.9525 22.0097L6.57918 25.4306C6.48281 25.17 6.41925 24.9127 6.41925 24.728C6.4192 24.6735 6.42473 24.6254 6.43659 24.5853ZM27.9753 9.43454C28.7645 11.2709 28.5235 13.5741 28.0767 14.9893C27.2731 17.5448 25.3221 20.522 22.8582 22.9532C22.8566 22.9548 22.8553 22.9562 22.8536 22.9578C20.4233 25.4206 17.4458 27.3722 14.8895 28.1779C13.4741 28.6231 11.1701 28.8632 9.33473 28.0747C8.41387 27.679 7.53984 26.9908 7.01536 26.2607L13.9349 22.5467C15.0474 22.7512 16.7024 22.116 18.3412 20.7807C18.7532 20.4454 19.1666 20.0718 19.5708 19.6692C19.972 19.2664 20.3455 18.8533 20.6811 18.4413C21.8602 16.9938 22.8496 15.474 22.4584 14.0507L26.1109 7.07996C26.8595 7.59901 27.57 8.49268 27.9753 9.43454Z" fill="white" stroke="white" stroke-width="0.5"/>
<path d="M5.04892 1.42732C0.965218 3.56988 -0.614283 8.63642 1.52664 12.7217C3.6699 16.8054 8.73686 18.3856 12.8215 16.244C13.1174 16.0888 13.4097 15.9117 13.694 15.7155L15.8642 16.9817C16.0156 17.0701 16.2037 17.0667 16.3516 16.9726C16.4996 16.879 16.5818 16.7103 16.5674 16.5357L16.2462 12.9028C16.9525 11.6328 17.3069 10.2357 17.3069 8.83653C17.3069 7.5065 16.9864 6.17464 16.3435 4.94918C14.2005 0.865199 9.1338 -0.714771 5.04892 1.42732ZM15.5134 5.3847C16.7054 7.65682 16.6484 10.3405 15.361 12.5638C15.3195 12.6352 15.2978 12.7165 15.2978 12.7986C15.2978 12.8124 15.2985 12.8261 15.2996 12.8398L15.5537 15.7151L13.9041 14.7526C13.7418 14.6581 13.5388 14.6693 13.3882 14.7814C13.0648 15.022 12.7277 15.2346 12.3862 15.4136C8.75931 17.3154 4.2602 15.9126 2.3568 12.2862C0.454561 8.65906 1.85851 4.16042 5.48448 2.25748C9.11158 0.355479 13.6105 1.75854 15.5134 5.3847Z" fill="white" stroke="white" stroke-width="0.5"/>
</g>
<defs>
<clipPath id="clip0_2019_443">
<rect width="30" height="30" fill="white" transform="translate(0 30) rotate(-90)"/>
</clipPath>
</defs>
</svg>
