<svg width="26" height="27" viewBox="0 0 26 27" fill="none" xmlns="http://www.w3.org/2000/svg">
<path d="M13 26.02C7.5 26.02 2.57 22.54 0.74 17.35C0.56 16.83 0.83 16.26 1.35 16.07C1.87 15.89 2.44 16.16 2.63 16.68C4.18 21.07 8.35 24.01 13 24.01C19.07 24.01 24 19.08 24 13.01C24 6.94 19.07 2.01 13 2.01C8.34 2.01 4.18 4.96 2.63 9.34C2.45 9.86 1.87 10.14 1.35 9.95C0.83 9.77 0.56 9.19 0.74 8.67C2.57 3.49 7.5 0 13 0C20.17 0 26 5.83 26 13C26 20.17 20.17 26 13 26V26.02ZM18 12.9C18 12.35 17.55 11.9 17 11.9H1C0.45 11.9 0 12.35 0 12.9C0 13.45 0.45 13.9 1 13.9H17C17.55 13.9 18 13.45 18 12.9ZM13.71 17.85L17.95 13.61C18.14 13.42 18.24 13.17 18.24 12.9C18.24 12.63 18.13 12.38 17.95 12.19L13.71 7.95C13.32 7.56 12.69 7.56 12.3 7.95C11.91 8.34 11.91 8.97 12.3 9.36L15.84 12.9L12.3 16.44C11.91 16.83 11.91 17.46 12.3 17.85C12.5 18.05 12.75 18.14 13.01 18.14C13.27 18.14 13.52 18.04 13.72 17.85H13.71Z" fill="black"/>
</svg>
