<svg width="31" height="30" viewBox="0 0 31 30" fill="none" xmlns="http://www.w3.org/2000/svg">
<g clip-path="url(#clip0_2019_388)">
<path d="M8.04724 5.09955L19.7142 5.09955C19.9086 5.09955 20.0953 5.17697 20.2328 5.31439C20.3702 5.45184 20.4475 5.63857 20.4476 5.83295L20.4476 9.16693C20.4475 9.36131 20.3702 9.54804 20.2328 9.68549C20.0953 9.82291 19.9086 9.90033 19.7142 9.90033H8.04724C7.85287 9.90024 7.66614 9.82294 7.52869 9.68549C7.39124 9.54804 7.31393 9.36131 7.31384 9.16693L7.31384 5.83295C7.31393 5.63857 7.39124 5.45184 7.52869 5.31439C7.66614 5.17694 7.85287 5.09963 8.04724 5.09955ZM8.78064 8.43353H18.9808L18.9808 6.51654L8.78064 6.51654L8.78064 8.43353Z" fill="white" stroke="#ED4200" stroke-width="0.2"/>
<path d="M8.04724 11.833H19.7142C19.9086 11.833 20.0953 11.9104 20.2328 12.0479C20.3702 12.1853 20.4475 12.372 20.4476 12.5664L20.4476 13.542L18.9808 15.0332L18.9808 13.2334H8.78064L8.78064 15.0996H18.9154L17.472 16.5664H8.04724C7.85287 16.5663 7.66614 16.489 7.52869 16.3516C7.39138 16.2141 7.31384 16.0273 7.31384 15.833L7.31384 12.5664C7.31393 12.372 7.39124 12.1853 7.52869 12.0479C7.66614 11.9104 7.85287 11.8331 8.04724 11.833Z" fill="white" stroke="#ED4200" stroke-width="0.2"/>
<path d="M4.71399 1.76617L23.048 1.76617C23.2423 1.76626 23.4291 1.84357 23.5665 1.98102C23.704 2.11847 23.7813 2.3052 23.7814 2.49957L23.7814 10.2564L22.3146 11.6422L22.3146 3.23297L5.44739 3.23297L5.44739 25.15H11.5714L11.3331 26.1861L11.3312 26.1968L11.3312 26.2505C11.3111 26.3552 11.2979 26.4608 11.2892 26.567H4.71399C4.51962 26.5669 4.33289 26.4896 4.19544 26.3521C4.05799 26.2147 3.98068 26.0279 3.98059 25.8336L3.98059 2.49957C3.98068 2.3052 4.05798 2.11847 4.19543 1.98102C4.33288 1.84357 4.51961 1.76626 4.71399 1.76617Z" fill="white" stroke="#ED4200" stroke-width="0.2"/>
<mask id="path-4-inside-1_2019_388" fill="white">
<path d="M20.5476 15.975L19.8976 16.6333C20.0588 16.6001 20.2066 16.5198 20.3223 16.4026C20.438 16.2855 20.5164 16.1366 20.5476 15.975Z"/>
</mask>
<path d="M20.5476 15.975L19.8976 16.6333C20.0588 16.6001 20.2066 16.5198 20.3223 16.4026C20.438 16.2855 20.5164 16.1366 20.5476 15.975Z" fill="white"/>
<path d="M20.5476 15.975L20.744 16.0129L20.869 15.3648L20.4053 15.8345L20.5476 15.975ZM19.8976 16.6333L19.7553 16.4928L19.2916 16.9624L19.938 16.8292L19.8976 16.6333ZM20.5476 15.975L20.4053 15.8345L19.7553 16.4928L19.8976 16.6333L20.0399 16.7738L20.6899 16.1155L20.5476 15.975ZM19.8976 16.6333L19.938 16.8292C20.1379 16.788 20.3212 16.6884 20.4647 16.5431L20.3223 16.4026L20.18 16.2621C20.0921 16.3512 19.9798 16.4122 19.8572 16.4374L19.8976 16.6333ZM20.3223 16.4026L20.4647 16.5431C20.6081 16.3979 20.7053 16.2133 20.744 16.0129L20.5476 15.975L20.3512 15.9371C20.3275 16.06 20.2679 16.1731 20.18 16.2621L20.3223 16.4026Z" fill="#ED4200" mask="url(#path-4-inside-1_2019_388)"/>
<path d="M7.21423 22.45C7.21423 22.6711 7.30203 22.883 7.45831 23.0393C7.61459 23.1956 7.82655 23.2834 8.04757 23.2834H12.0809L12.3309 22.2L12.4392 21.7417L12.4392 21.7H8.8809L8.8809 20H14.1642L15.8309 18.3334H8.04757C7.82655 18.3334 7.61459 18.4212 7.45831 18.5775C7.30203 18.7337 7.21423 18.9457 7.21423 19.1667L7.21423 22.45Z" fill="white"/>
<path d="M26.3644 10.7886C26.5277 10.7886 26.6891 10.8217 26.84 10.8843C26.9908 10.9469 27.128 11.0382 27.2433 11.1538L30.0226 13.9331L30.0226 13.9829L30.0519 14.0122C30.1672 14.1268 30.2589 14.2635 30.3214 14.4136C30.3839 14.5637 30.4161 14.7246 30.4161 14.8872C30.4161 15.0497 30.3838 15.2108 30.3214 15.3608C30.2589 15.511 30.1672 15.6476 30.0519 15.7622L18.6554 27.1831L14.6456 28.0679C14.555 28.0824 14.4628 28.0826 14.3722 28.0679L14.3595 28.0659L14.3458 28.0669C14.2672 28.0748 14.1881 28.0747 14.1095 28.0669C13.9523 28.0342 13.8024 27.971 13.6691 27.8813C13.5337 27.7903 13.4174 27.6736 13.3273 27.5376C13.237 27.4015 13.1749 27.2487 13.1437 27.0884C13.1125 26.9281 13.113 26.763 13.1456 26.603L13.1447 26.6021L14.0802 22.6245L25.4855 11.1538C25.6008 11.0382 25.738 10.9469 25.8888 10.8843C26.0396 10.8217 26.2011 10.7886 26.3644 10.7886ZM24.0431 14.6792L15.4767 23.3384L15.4572 23.3579L15.4503 23.3843L14.7091 26.4097L14.671 26.5659L14.8273 26.5308L17.8781 25.856L17.9064 25.8491L17.9269 25.8286L26.5353 17.1704L26.6056 17.1001L26.5353 17.0288L24.1847 14.6792L24.1144 14.6079L24.0431 14.6792ZM26.3107 12.4292L24.9855 13.7368L24.9142 13.8081L27.4044 16.2983L27.4757 16.23L28.8175 14.939L28.8907 14.8677L28.8185 14.7954L26.4513 12.4292L26.381 12.3589L26.3107 12.4292Z" fill="white" stroke="#ED4200" stroke-width="0.2"/>
</g>
<defs>
<clipPath id="clip0_2019_388">
<rect width="30" height="30" fill="white" transform="translate(0.5)"/>
</clipPath>
</defs>
</svg>
