<svg width="20" height="21" viewBox="0 0 20 21" fill="none" xmlns="http://www.w3.org/2000/svg">
<path fill-rule="evenodd" clip-rule="evenodd" d="M8 5.104C8 4.552 8.448 4.104 9 4.104H14C15.105 4.104 16 4.999 16 6.104V11.104C16 11.656 15.552 12.104 15 12.104C14.448 12.104 14 11.656 14 11.104V8.7251C14 8.2801 13.461 8.05707 13.146 8.37207L10.121 11.397C9.731 11.787 9.098 11.787 8.707 11.397C8.317 11.006 8.317 10.3729 8.707 9.98291L11.732 6.95801C12.047 6.64301 11.824 6.104 11.379 6.104H9C8.448 6.104 8 5.656 8 5.104ZM2 3.104C2 2.552 2.448 2.104 3 2.104H17C17.552 2.104 18 2.552 18 3.104V17.104C18 17.656 17.552 18.104 17 18.104H9C8.448 18.104 8 17.656 8 17.104V14.104C8 12.999 7.105 12.104 6 12.104H3C2.448 12.104 2 11.656 2 11.104V3.104ZM20 2.104C20 0.999004 19.105 0.104004 18 0.104004H2C0.895 0.104004 0 0.999004 0 2.104V18.104C0 19.209 0.895 20.104 2 20.104H18C19.105 20.104 20 19.209 20 18.104V2.104Z" fill="#262626"/>
</svg>
