<svg width="27" height="27" viewBox="0 0 27 27" fill="none" xmlns="http://www.w3.org/2000/svg">
<path fill-rule="evenodd" clip-rule="evenodd" d="M13.3657 25.3779C13.657 25.3779 13.893 25.614 13.893 25.9053C13.893 26.1964 13.657 26.4326 13.3657 26.4326H6.19873C5.90752 26.4326 5.67143 26.1964 5.67139 25.9053C5.67139 25.6139 5.9075 25.378 6.19873 25.3779H13.3657ZM16.7407 25.3779C17.0319 25.3779 17.268 25.614 17.268 25.9053C17.268 26.1964 17.0319 26.4326 16.7407 26.4326H15.5805C15.2892 26.4326 15.0532 26.1964 15.0532 25.9053C15.0532 25.6139 15.2892 25.3779 15.5805 25.3779H16.7407ZM23.1743 25.3779C23.4656 25.3779 23.7016 25.614 23.7016 25.9053C23.7016 26.1964 23.4655 26.4326 23.1743 26.4326H18.8501C18.5588 26.4326 18.3227 26.1964 18.3227 25.9053C18.3227 25.6139 18.5588 25.378 18.8501 25.3779H23.1743ZM8.3208 11.7119C8.61202 11.7119 8.84797 11.9481 8.84815 12.2393C8.84815 12.5306 8.61213 12.7666 8.3208 12.7666H4.79541C4.35127 12.7666 3.96259 13.0512 3.82862 13.4746L1.16162 21.9014C1.06305 22.2129 1.11792 22.5431 1.31104 22.8066C1.50404 23.0699 1.80188 23.2216 2.12842 23.2217H5.05323L8.271 18.6904C8.43963 18.4534 8.76832 18.3982 9.00537 18.5664C9.24287 18.735 9.29912 19.0644 9.13037 19.3018L6.34717 23.2217H21.6811L20.3325 21.7256C20.1374 21.5093 20.1542 21.1755 20.3706 20.9805C20.587 20.7854 20.9207 20.8032 21.1157 21.0195L23.101 23.2217H24.8715C25.1981 23.2217 25.4958 23.07 25.6889 22.8066C25.8819 22.5431 25.937 22.2131 25.8383 21.9014L23.1713 13.4746C23.1326 13.3523 23.072 13.2421 22.9956 13.1465C22.993 13.1491 22.9905 13.1517 22.9877 13.1543L19.1743 16.6631C19.0729 16.7563 18.9443 16.8027 18.8168 16.8027C18.6745 16.8026 18.533 16.7446 18.4292 16.6318C18.2321 16.4174 18.2462 16.084 18.4604 15.8867L21.851 12.7666H18.6792C18.3879 12.7666 18.1518 12.5305 18.1518 12.2393C18.152 11.9481 18.388 11.7119 18.6792 11.7119H22.2045C23.1105 11.7119 23.9036 12.2924 24.1772 13.1562L26.8432 21.583C27.0443 22.2186 26.9344 22.8918 26.5405 23.4297C26.1466 23.9673 25.538 24.2763 24.8715 24.2764H2.12842C1.46194 24.2763 0.853259 23.9673 0.459472 23.4297C0.0656283 22.8918 -0.044249 22.2185 0.156738 21.583L2.82276 13.1562C3.09612 12.2924 3.88918 11.7119 4.79541 11.7119H8.3208ZM19.4897 18.8408C19.7763 18.7974 20.0465 18.9952 20.0903 19.2832C20.1342 19.571 19.9367 19.8398 19.6489 19.8838C19.3154 19.9345 18.9757 19.9612 18.6401 19.9629H18.6372C18.3474 19.9629 18.1114 19.7287 18.1098 19.4385C18.1083 19.1473 18.3429 18.9097 18.6342 18.9082C18.9188 18.9068 19.2066 18.8839 19.4897 18.8408ZM14.2876 18.1543C14.4179 17.8941 14.7342 17.7888 14.9946 17.9189C15.2817 18.0624 15.5497 18.1857 15.812 18.2949C16.0806 18.4068 16.2076 18.7147 16.0961 18.9834C16.0118 19.1863 15.8155 19.3086 15.6088 19.3086C15.5415 19.3086 15.4727 19.296 15.4067 19.2686C15.1215 19.15 14.8322 19.017 14.5229 18.8623C14.2626 18.732 14.1573 18.4147 14.2876 18.1543ZM22.5717 17.5566C22.8131 17.3936 23.1414 17.4579 23.3042 17.6992C23.4669 17.9406 23.4028 18.2678 23.1616 18.4307C23.0228 18.5243 22.8822 18.6151 22.7436 18.7002C22.6576 18.7529 22.5621 18.7783 22.4682 18.7783C22.2908 18.7783 22.1176 18.6887 22.018 18.5264C21.8661 18.2782 21.9438 17.954 22.1918 17.8018C22.3175 17.7247 22.4455 17.6417 22.5717 17.5566ZM4.11963 16.7188C4.33837 16.5262 4.67151 16.5473 4.86377 16.7656C5.05613 16.9842 5.0344 17.3173 4.81592 17.5098C4.63837 17.666 4.54607 17.7771 4.54346 17.7803C4.43913 17.9083 4.28692 17.9755 4.1333 17.9756C4.01713 17.9756 3.90034 17.9377 3.80323 17.8594C3.57739 17.6773 3.53959 17.348 3.72022 17.1211C3.73452 17.1033 3.86737 16.9407 4.11963 16.7188ZM10.7377 16.1904C10.8656 15.9287 11.182 15.8202 11.4438 15.9482C11.6987 16.0731 11.9779 16.221 12.2973 16.4004C12.5511 16.5428 12.6419 16.8641 12.4995 17.1182C12.4027 17.2905 12.2229 17.3877 12.0385 17.3877C11.9511 17.3876 11.8624 17.3653 11.7807 17.3193C11.4791 17.1501 11.2169 17.0114 10.9799 16.8955C10.7186 16.7677 10.6101 16.4519 10.7377 16.1904ZM8.18897 15.2236C8.47866 15.2207 8.72264 15.4461 8.72998 15.7373C8.73746 16.0283 8.50742 16.2698 8.21631 16.2773C7.92364 16.2849 7.63454 16.3118 7.35694 16.3574C7.32798 16.3622 7.29934 16.3652 7.271 16.3652C7.01733 16.3652 6.79389 16.1814 6.75147 15.9229C6.70427 15.6355 6.89871 15.3646 7.18604 15.3174C7.51092 15.2641 7.84839 15.2324 8.18897 15.2236ZM13.4467 0.567383C14.6698 0.567486 15.9641 1.00065 16.9985 1.75488C18.1095 2.5651 18.8475 3.67791 19.0756 4.88867C19.1121 5.08323 19.1414 5.28197 19.1626 5.47949C19.4166 7.85542 18.5349 10.5256 16.8051 12.6221C16.6889 12.7631 16.0336 13.4895 15.3608 14.1445C14.5312 14.9522 13.9617 15.4131 13.5102 15.4131C13.3799 15.4131 13.2593 15.3745 13.145 15.2949C10.3037 13.3144 8.3824 10.3831 7.87452 7.25391C7.59435 5.5276 8.05852 3.8022 9.14893 2.52051C10.2204 1.26106 11.7474 0.567383 13.4467 0.567383ZM13.5004 2.75293C11.4827 2.75293 9.84044 4.39416 9.84034 6.41211C9.84034 8.42993 11.4826 10.0713 13.5004 10.0713C15.518 10.0711 17.1596 8.42978 17.1596 6.41211C17.1595 4.39439 15.518 2.75317 13.5004 2.75293ZM13.5004 3.80762C14.9365 3.80786 16.1048 4.97594 16.1049 6.41211C16.1049 7.84829 14.9365 9.01636 13.5004 9.0166C12.064 9.0166 10.895 7.84844 10.895 6.41211C10.8951 4.97579 12.0641 3.80762 13.5004 3.80762Z" fill="black"/>
</svg>
