<svg width="31" height="30" viewBox="0 0 31 30" fill="none" xmlns="http://www.w3.org/2000/svg">
<g clip-path="url(#clip0_410_82)">
<path d="M8.52531 18.0606C8.80545 17.8991 8.90137 17.5403 8.73977 17.2602C8.57793 16.9803 8.21951 16.8842 7.93938 17.0458C7.65924 17.2076 7.56309 17.5662 7.72492 17.8461C7.88647 18.1263 8.24518 18.2224 8.52531 18.0606Z" fill="#2F3472"/>
<path d="M6.12408 22.1047L9.07486 27.2159C9.7116 28.32 11.1439 28.7288 12.2767 28.074C13.3976 27.4262 13.7827 25.9941 13.1343 24.8724L11.3765 21.8273L12.8987 20.9484C13.1789 20.7864 13.275 20.4282 13.1132 20.148L12.3513 18.8283C12.4421 18.8107 13.0395 18.6935 23.5743 16.6269C24.8766 16.5562 25.6569 15.1318 24.9991 13.9931L23.0518 10.6204L24.2962 8.73552C24.3561 8.6447 24.3896 8.53897 24.3929 8.43019C24.3962 8.3214 24.3691 8.21385 24.3147 8.11958L23.1429 6.08989C23.0883 5.99575 23.0087 5.91861 22.9129 5.86708C22.817 5.81556 22.7088 5.79167 22.6002 5.7981L20.3459 5.93333L18.1841 2.18878C17.871 1.64638 17.31 1.3179 16.6838 1.31011C16.6762 1.30988 16.6689 1.30988 16.6613 1.30988C16.0562 1.30988 15.5069 1.61111 15.1814 2.12034L7.52716 11.8712L2.55103 14.7441C0.593881 15.8736 -0.0841656 18.3846 1.0498 20.347C2.08574 22.1414 4.2697 22.8473 6.12408 22.1048V22.1047ZM12.1197 25.4585C12.4433 26.0184 12.2518 26.7348 11.6902 27.0591C11.127 27.3848 10.4097 27.1848 10.0897 26.6302L7.16001 21.5552L9.1897 20.3833C12.5804 26.2569 12.0652 25.3645 12.1197 25.4585ZM10.7905 20.8122L10.2046 19.7974L11.2194 19.2114L11.8054 20.2263L10.7905 20.8122ZM22.309 6.98937L23.1188 8.39199L22.3967 9.48558L21.001 7.06788L22.309 6.98937ZM16.1615 2.76282C16.3187 2.5056 16.5682 2.47906 16.6694 2.48175C16.7694 2.48292 17.0186 2.51404 17.169 2.77454L23.9842 14.5791C24.2062 14.9634 23.9363 15.4466 23.4912 15.4576C23.4113 15.4593 23.3745 15.4738 23.1698 15.5121L15.9607 3.02532C16.112 2.83079 16.1315 2.81204 16.1615 2.76282ZM15.181 4.01872L21.9542 15.7505L11.732 17.7555L8.62374 12.372L15.181 4.01872ZM2.06464 19.761C1.8076 19.3166 1.67201 18.8124 1.67148 18.2991C1.67148 17.2541 2.2331 16.2808 3.13691 15.759L7.70382 13.1223L10.6335 18.1965L6.06665 20.8335C4.66749 21.641 2.87236 21.1599 2.0647 19.761H2.06464Z" fill="#2F3472"/>
<path d="M6.71003 18.4321C6.54825 18.1519 6.18977 18.0558 5.90963 18.2176L4.89479 18.8036C4.61506 18.9652 4.256 18.8688 4.0944 18.5891C3.93256 18.309 3.57409 18.2128 3.29401 18.3747C3.01393 18.5365 2.91772 18.8949 3.07956 19.175C3.56178 20.0105 4.63756 20.305 5.48073 19.8184L6.49557 19.2325C6.77571 19.0707 6.87186 18.7124 6.71003 18.4321ZM29.6291 2.56325L26.3641 4.38012C26.0815 4.53756 25.9796 4.8944 26.1371 5.17706C26.2941 5.45948 26.6507 5.56184 26.9341 5.40411L30.1988 3.58729C30.4817 3.42979 30.5833 3.07296 30.4258 2.7903C30.2686 2.50741 29.9118 2.40581 29.6291 2.56325ZM29.2867 8.6318L27.0228 8.0253C26.7102 7.94151 26.3889 8.1269 26.3051 8.43956C26.2213 8.75221 26.407 9.07337 26.7196 9.1571L28.9837 9.76366C29.2982 9.84809 29.6179 9.65971 29.7012 9.3494C29.785 9.03675 29.5994 8.71542 29.2867 8.6318ZM23.5977 0.43442L22.9904 2.69848C22.9066 3.0112 23.092 3.33229 23.4047 3.41626C23.7171 3.49981 24.0385 3.31489 24.1224 3.002L24.7295 0.737936C24.8133 0.42528 24.6278 0.103952 24.3152 0.0201626C24.0027 -0.0636265 23.6814 0.121764 23.5976 0.43442H23.5977Z" fill="#2F3472"/>
</g>
<defs>
<clipPath id="clip0_410_82">
<rect width="30" height="30" fill="white" transform="translate(0.5)"/>
</clipPath>
</defs>
</svg>
