<svg width="24" height="25" viewBox="0 0 24 25" fill="none" xmlns="http://www.w3.org/2000/svg">
<path d="M19 8.5V14.5C19 15.052 18.553 15.5 18 15.5C17.447 15.5 17 15.052 17 14.5V8.914L6.707 19.207C6.512 19.402 6.256 19.5 6 19.5C5.744 19.5 5.488 19.402 5.293 19.207C4.902 18.816 4.902 18.184 5.293 17.793L15.586 7.5H10C9.447 7.5 9 7.052 9 6.5C9 5.948 9.447 5.5 10 5.5H16C17.654 5.5 19 6.846 19 8.5ZM24 5.5V19.5C24 22.257 21.757 24.5 19 24.5H5C2.243 24.5 0 22.257 0 19.5V5.5C0 2.743 2.243 0.5 5 0.5H19C21.757 0.5 24 2.743 24 5.5ZM22 5.5C22 3.846 20.654 2.5 19 2.5H5C3.346 2.5 2 3.846 2 5.5V19.5C2 21.154 3.346 22.5 5 22.5H19C20.654 22.5 22 21.154 22 19.5V5.5Z" fill="black"/>
</svg>
