<svg width="28" height="27" viewBox="0 0 28 27" fill="none" xmlns="http://www.w3.org/2000/svg">
<path d="M23.3643 9.28864C23.5275 9.28864 23.689 9.32175 23.8398 9.38434C23.9906 9.44694 24.1279 9.53827 24.2432 9.65387L27.0225 12.4332V12.483L27.0518 12.5123C27.1671 12.6269 27.2588 12.7635 27.3213 12.9136C27.3838 13.0637 27.416 13.2247 27.416 13.3873C27.416 13.5497 27.3837 13.7109 27.3213 13.8609C27.2588 14.0111 27.167 14.1477 27.0518 14.2623L15.6553 25.6832L11.6455 26.5679C11.5549 26.5824 11.4627 26.5826 11.3721 26.5679L11.3594 26.566L11.3457 26.567C11.2671 26.5749 11.188 26.5748 11.1094 26.567C10.9522 26.5343 10.8022 26.4711 10.6689 26.3814C10.5336 26.2904 10.4172 26.1737 10.3271 26.0377C10.2369 25.9016 10.1748 25.7487 10.1436 25.5884C10.1124 25.4282 10.1129 25.2631 10.1455 25.1031L10.1445 25.1021L11.0801 21.1246L16.8174 15.3541L16.291 15.4625L16.7549 14.9927L17.4053 14.3345L17.8691 13.8648L17.7656 14.4L22.4854 9.65387C22.6006 9.53828 22.7379 9.44694 22.8887 9.38434C23.0395 9.32174 23.201 9.28864 23.3643 9.28864ZM20.0479 0.266174C20.2422 0.266264 20.429 0.343568 20.5664 0.481018C20.7039 0.618467 20.7811 0.805209 20.7812 0.999573V8.75641L19.3145 10.1422V1.73297H2.44727V23.65H8.57129L8.33301 24.6861L8.33105 24.6968V24.7505C8.31096 24.8552 8.29776 24.9608 8.28906 25.067H1.71387C1.5195 25.0669 1.33276 24.9896 1.19531 24.8521C1.05786 24.7147 0.980559 24.5279 0.980469 24.3336V0.999573C0.980559 0.805203 1.05786 0.618468 1.19531 0.481018C1.33276 0.343572 1.51949 0.266265 1.71387 0.266174H20.0479ZM21.043 13.1793L12.4766 21.8384L12.457 21.858L12.4502 21.8843L11.709 24.9097L11.6709 25.066L11.8271 25.0308L14.8779 24.356L14.9062 24.3492L14.9268 24.3287L23.5352 15.6705L23.6055 15.6002L23.5352 15.5289L21.1846 13.1793L21.1143 13.108L21.043 13.1793ZM11.1641 18.4996H5.88086V20.1998H9.43945V20.2418L9.33105 20.6998L9.08105 21.7838H5.04785C4.82686 21.7838 4.61428 21.6959 4.45801 21.5396C4.30173 21.3833 4.21387 21.1709 4.21387 20.9498V17.6666C4.2139 17.4457 4.30188 17.2338 4.45801 17.0777C4.61429 16.9214 4.82683 16.8336 5.04785 16.8336H12.8311L11.1641 18.4996ZM16.7139 10.3326C16.9081 10.3326 17.095 10.4102 17.2324 10.5474C17.3697 10.6847 17.4471 10.8717 17.4473 11.066V12.0416L15.9805 13.5328V11.733H5.78027V13.5992H15.915L14.4717 15.066H5.04688C4.85259 15.0658 4.66571 14.9885 4.52832 14.8511C4.39124 14.7137 4.31348 14.5267 4.31348 14.3326V11.066C4.31368 10.8717 4.39097 10.6847 4.52832 10.5474C4.6657 10.4101 4.85265 10.3327 5.04688 10.3326H16.7139ZM23.3105 10.9293L21.9854 12.2369L21.9141 12.3082L24.4043 14.7984L24.4756 14.73L25.8174 13.439L25.8906 13.3677L25.8184 13.2955L23.4512 10.9293L23.3809 10.8589L23.3105 10.9293ZM16.7139 3.59918C16.9081 3.59918 17.095 3.6768 17.2324 3.81403C17.3697 3.95139 17.4471 4.13833 17.4473 4.33258V7.66656C17.4472 7.86092 17.3698 8.04767 17.2324 8.18512C17.0949 8.32254 16.9083 8.39996 16.7139 8.39996H5.04688C4.85259 8.39981 4.66571 8.32251 4.52832 8.18512C4.39106 8.0477 4.31357 7.8608 4.31348 7.66656V4.33258C4.31366 4.13833 4.39096 3.95139 4.52832 3.81403C4.66571 3.67667 4.85262 3.59933 5.04688 3.59918H16.7139ZM5.78027 6.93317H15.9805V5.01617H5.78027V6.93317Z" fill="black"/>
</svg>
