<svg width="26" height="28" viewBox="0 0 26 28" fill="none" xmlns="http://www.w3.org/2000/svg">
<path d="M6.12408 21.6047L9.07486 26.7159C9.7116 27.82 11.1439 28.2288 12.2767 27.574C13.3976 26.9262 13.7827 25.4941 13.1343 24.3724L11.3765 21.3273L12.8987 20.4484C13.1789 20.2864 13.275 19.9282 13.1132 19.648L12.3513 18.3283C12.4421 18.3107 13.0395 18.1935 23.5743 16.1269C24.8766 16.0562 25.6569 14.6318 24.9991 13.4931L23.0518 10.1204L24.2962 8.23555C24.3561 8.14473 24.3896 8.03899 24.3929 7.93021C24.3962 7.82142 24.3691 7.71388 24.3147 7.61961L23.1429 5.58992C23.0883 5.49578 23.0087 5.41864 22.9129 5.36711C22.817 5.31559 22.7088 5.2917 22.6002 5.29813L20.3459 5.43336L18.1841 1.6888C17.871 1.14641 17.31 0.817926 16.6838 0.810136C16.6762 0.809906 16.6689 0.809906 16.6613 0.809906C16.0562 0.809906 15.5069 1.11114 15.1814 1.62037L7.52716 11.3712L2.55103 14.2441C0.593881 15.3736 -0.0841659 17.8846 1.0498 19.847C2.08574 21.6414 4.2697 22.3472 6.12408 21.6047ZM12.1197 24.9585C12.4433 25.5184 12.2518 26.2348 11.6902 26.5591C11.127 26.8848 10.4097 26.6848 10.0897 26.1302L7.16001 21.0552L9.1897 19.8833C12.5804 25.7569 12.0652 24.8645 12.1197 24.9585ZM10.7905 20.3122L10.2046 19.2974L11.2194 18.7114L11.8054 19.7263L10.7905 20.3122ZM22.309 6.4894L23.1188 7.89202L22.3967 8.98561L21.001 6.56791L22.309 6.4894ZM16.1615 2.26285C16.3187 2.00563 16.5682 1.97909 16.6694 1.98178C16.7694 1.98295 17.0186 2.01406 17.169 2.27456L23.9842 14.0791C24.2062 14.4634 23.9363 14.9466 23.4912 14.9576C23.4113 14.9593 23.3745 14.9738 23.1698 15.0121L15.9607 2.52535C16.112 2.33082 16.1315 2.31207 16.1615 2.26285ZM15.181 3.51874L21.9542 15.2505L11.732 17.2555L8.62374 11.872L15.181 3.51874ZM2.06464 19.261C1.8076 18.8166 1.67201 18.3124 1.67148 17.7991C1.67148 16.7541 2.2331 15.7808 3.13691 15.259L7.70382 12.6223L10.6335 17.6965L6.06665 20.3335C4.66749 21.141 2.8723 20.6599 2.06464 19.261Z" fill="black"/>
</svg>
