<svg width="24" height="24" viewBox="0 0 24 24" fill="none" xmlns="http://www.w3.org/2000/svg">
<path d="M19 8V14C19 14.552 18.553 15 18 15C17.447 15 17 14.552 17 14V8.414L6.707 18.707C6.512 18.902 6.256 19 6 19C5.744 19 5.488 18.902 5.293 18.707C4.902 18.316 4.902 17.684 5.293 17.293L15.586 7H10C9.447 7 9 6.552 9 6C9 5.448 9.447 5 10 5H16C17.654 5 19 6.346 19 8ZM24 5V19C24 21.757 21.757 24 19 24H5C2.243 24 0 21.757 0 19V5C0 2.243 2.243 0 5 0H19C21.757 0 24 2.243 24 5ZM22 5C22 3.346 20.654 2 19 2H5C3.346 2 2 3.346 2 5V19C2 20.654 3.346 22 5 22H19C20.654 22 22 20.654 22 19V5Z" fill="black"/>
</svg>
