<svg width="24" height="25" viewBox="0 0 24 25" fill="none" xmlns="http://www.w3.org/2000/svg">
<path d="M12 0.5C18.6274 0.5 24 5.87258 24 12.5C24 15.4283 22.9496 18.1102 21.207 20.1934L17.5674 16.5537C18.4949 15.3663 19.0498 13.8735 19.0498 12.25C19.0498 8.384 15.9158 5.25 12.0498 5.25C8.18382 5.25 5.0498 8.384 5.0498 12.25C5.0498 16.116 8.18382 19.25 12.0498 19.25C13.5706 19.25 14.9769 18.7632 16.125 17.9395L19.7998 21.6143C17.7018 23.4113 14.979 24.5 12 24.5C5.37258 24.5 0 19.1274 0 12.5C0 5.87258 5.37258 0.5 12 0.5ZM12.0498 7.25C14.8112 7.25 17.0498 9.48858 17.0498 12.25C17.0498 15.0114 14.8112 17.25 12.0498 17.25C9.28839 17.25 7.0498 15.0114 7.0498 12.25C7.0498 9.48858 9.28839 7.25 12.0498 7.25Z" fill="black"/>
</svg>
