<svg width="23" height="23" viewBox="0 0 23 23" fill="none" xmlns="http://www.w3.org/2000/svg">
<path fill-rule="evenodd" clip-rule="evenodd" d="M9.2 5.75C9.2 5.1152 9.7152 4.6 10.35 4.6H16.1C17.3708 4.6 18.4 5.62925 18.4 6.9V12.65C18.4 13.2848 17.8848 13.8 17.25 13.8C16.6152 13.8 16.1 13.2848 16.1 12.65V9.91426C16.1 9.40251 15.4801 9.14603 15.1179 9.50828L11.6391 12.9869C11.1906 13.4354 10.4627 13.4354 10.0131 12.9869C9.56455 12.5373 9.56455 11.8092 10.0131 11.3607L13.4918 7.8821C13.854 7.51985 13.5976 6.9 13.0859 6.9H10.35C9.7152 6.9 9.2 6.3848 9.2 5.75ZM2.3 3.45C2.3 2.8152 2.8152 2.3 3.45 2.3H19.55C20.1848 2.3 20.7 2.8152 20.7 3.45V19.55C20.7 20.1848 20.1848 20.7 19.55 20.7H10.35C9.7152 20.7 9.2 20.1848 9.2 19.55V16.1C9.2 14.8292 8.17075 13.8 6.9 13.8H3.45C2.8152 13.8 2.3 13.2848 2.3 12.65V3.45ZM23 2.3C23 1.02925 21.9707 0 20.7 0H2.3C1.02925 0 0 1.02925 0 2.3V20.7C0 21.9707 1.02925 23 2.3 23H20.7C21.9707 23 23 21.9707 23 20.7V2.3Z" fill="black"/>
</svg>
