<svg width="20" height="20" viewBox="0 0 20 20" fill="none" xmlns="http://www.w3.org/2000/svg">
<path fill-rule="evenodd" clip-rule="evenodd" d="M8 5C8 4.448 8.448 4 9 4H14C15.105 4 16 4.895 16 6V11C16 11.552 15.552 12 15 12C14.448 12 14 11.552 14 11V8.62109C14 8.17609 13.461 7.95307 13.146 8.26807L10.121 11.293C9.731 11.683 9.098 11.683 8.707 11.293C8.317 10.902 8.317 10.2689 8.707 9.87891L11.732 6.854C12.047 6.539 11.824 6 11.379 6H9C8.448 6 8 5.552 8 5ZM2 3C2 2.448 2.448 2 3 2H17C17.552 2 18 2.448 18 3V17C18 17.552 17.552 18 17 18H9C8.448 18 8 17.552 8 17V14C8 12.895 7.105 12 6 12H3C2.448 12 2 11.552 2 11V3ZM20 2C20 0.895 19.105 0 18 0H2C0.895 0 0 0.895 0 2V18C0 19.105 0.895 20 2 20H18C19.105 20 20 19.105 20 18V2Z" fill="#262626"/>
</svg>
